<svg width="260" height="61" viewBox="0 0 260 61" fill="none" xmlns="http://www.w3.org/2000/svg">
<path d="M51.3291 30.541C51.3291 21.9676 46.0795 14.6336 38.6333 11.5748C38.429 11.491 36.6291 14.6858 36.4716 14.9681C35.6777 16.3925 34.9803 17.8863 34.5178 19.4529C33.7235 22.144 33.4807 26.7231 37.1563 27.2345C39.1316 27.5095 41.8339 26.8484 43.4689 28.3086C45.6554 30.2607 43.9904 34.0681 42.9601 36.1703C41.4694 39.2102 39.4661 42.0109 37.327 44.6252C36.0428 46.1949 34.6901 47.7362 33.2126 49.1278C32.5362 49.7657 32.1506 50.3899 31.9468 50.9836C42.7394 50.4363 51.3291 41.5068 51.3291 30.541Z" fill="#F7941E"/>
<path d="M30.747 35.3412C30.5532 34.9709 30.1808 34.7276 29.5376 34.6981C27.4422 34.6032 25.5517 35.6215 23.5922 36.1872C22.0077 36.6449 20.2794 36.9652 18.6255 36.794C16.0591 36.5301 14.3983 34.5453 15.1384 31.9574C15.6256 30.256 16.8561 28.7131 17.8548 27.2761C18.9062 25.7639 20.0076 24.2868 21.1359 22.8314C23.3546 19.9701 25.6776 17.1905 28.0537 14.4593C28.7643 13.6428 29.4797 12.8311 30.1997 12.0241C30.431 11.765 31.623 10.0815 31.938 10.0973C31.594 10.0799 31.2548 10.0446 30.9066 10.0446C19.6273 10.0446 10.484 19.2206 10.484 30.5399C10.484 39.6737 16.441 47.4043 24.6662 50.0518C26.6299 48.4199 28.0511 46.2549 29.0061 43.902C29.5929 42.4571 30.0485 40.9553 30.481 39.4583C30.8555 38.1625 31.4249 36.636 30.747 35.3412Z" fill="#2455A6"/>
<path d="M30.8238 58.7679C14.9376 58.7679 2.01271 46.0379 2.01271 30.3903C2.01271 14.7427 14.9376 2.01271 30.8238 2.01271C44.9628 2.01271 56.7473 12.0994 59.1703 25.3493L61.2057 25.2919C58.7379 10.9543 46.0579 0 30.8238 0C13.8272 0 0 13.6328 0 30.3903C0 47.1473 13.8272 60.7806 30.8238 60.7806C46.196 60.7806 58.9733 49.6288 61.2763 35.1H59.2304C56.9453 48.5131 45.0803 58.7679 30.8238 58.7679Z" fill="#2455A6"/>
<path d="M63.9279 29.932C63.9279 31.9416 62.2987 33.5708 60.2891 33.5708C58.2796 33.5708 56.6509 31.9416 56.6509 29.932C56.6509 27.9225 58.2796 26.2932 60.2891 26.2932C62.2987 26.2932 63.9279 27.9225 63.9279 29.932Z" fill="#F7941E"/>
<path d="M92.2297 21.2717C92.1043 21.5225 91.9589 21.6989 91.794 21.8016C91.6286 21.9044 91.4316 21.9554 91.2041 21.9554C90.9755 21.9554 90.72 21.867 90.435 21.6905C90.1501 21.514 89.814 21.317 89.4263 21.1005C89.0391 20.8846 88.5861 20.6876 88.0678 20.5111C87.5495 20.3346 86.9369 20.2461 86.23 20.2461C85.5921 20.2461 85.0364 20.323 84.5639 20.4769C84.0914 20.6307 83.6921 20.844 83.3676 21.1179C83.0426 21.3913 82.8003 21.7189 82.6412 22.1008C82.4816 22.4822 82.4021 22.9015 82.4021 23.3566C82.4021 23.9381 82.5643 24.4222 82.8888 24.8099C83.2138 25.1971 83.6436 25.5273 84.1793 25.8012C84.715 26.0746 85.3245 26.3196 86.0082 26.5361C86.6914 26.7526 87.3899 26.9833 88.1015 27.2282C88.8137 27.4732 89.5116 27.7581 90.1959 28.0826C90.8791 28.4071 91.4885 28.8174 92.0248 29.3131C92.5599 29.8088 92.9903 30.4156 93.3148 31.1335C93.6398 31.8515 93.802 32.7233 93.802 33.7483C93.802 34.8656 93.6113 35.9106 93.2294 36.8846C92.8475 37.8591 92.2892 38.7082 91.5544 39.4314C90.8196 40.1552 89.9225 40.7251 88.8627 41.1407C87.8023 41.5569 86.5892 41.7644 85.2218 41.7644C84.4359 41.7644 83.661 41.6875 82.8978 41.5337C82.134 41.3799 81.4018 41.1607 80.7007 40.8758C80.0006 40.5913 79.3448 40.2495 78.7354 39.8502C78.1265 39.4514 77.5818 39.0069 77.1035 38.517L78.4362 36.3125C78.5621 36.1529 78.7127 36.0186 78.8897 35.9106C79.0662 35.8026 79.2621 35.7479 79.4792 35.7479C79.7636 35.7479 80.0712 35.8648 80.402 36.0982C80.7323 36.332 81.1226 36.5917 81.573 36.8762C82.0228 37.1606 82.5527 37.4198 83.1622 37.6542C83.7716 37.8875 84.5038 38.0045 85.3587 38.0045C86.6688 38.0045 87.6833 37.6942 88.4012 37.0726C89.1192 36.4516 89.4779 35.5603 89.4779 34.3978C89.4779 33.7483 89.3152 33.2184 88.9907 32.8081C88.6657 32.3977 88.2353 32.0532 87.7001 31.7741C87.1644 31.4949 86.555 31.2584 85.8713 31.0645C85.1875 30.8712 84.4928 30.66 83.7864 30.4324C83.0795 30.2043 82.3847 29.931 81.701 29.6118C81.0173 29.2931 80.4078 28.8769 79.8721 28.3644C79.3364 27.8514 78.9066 27.2103 78.5816 26.4412C78.2571 25.6722 78.0949 24.7235 78.0949 23.5952C78.0949 22.6955 78.2739 21.818 78.6332 20.9636C78.9919 20.1087 79.516 19.3512 80.2055 18.6901C80.8951 18.0296 81.7405 17.4997 82.7434 17.1009C83.7464 16.7022 84.8915 16.5025 86.1794 16.5025C87.6375 16.5025 88.9817 16.7306 90.2127 17.1863C91.4432 17.6419 92.4915 18.2798 93.3574 19.1005L92.2297 21.2717Z" fill="#F7941E"/>
<path d="M102.843 41.7649C101.328 41.7649 100.16 41.3351 99.3398 40.4744C98.5191 39.6142 98.1093 38.4264 98.1093 36.9104V27.1165H96.3315C96.1035 27.1165 95.907 27.0428 95.7416 26.8942C95.5767 26.7467 95.494 26.5245 95.494 26.2279V24.5528L98.3142 24.0914L99.2029 19.3059C99.2487 19.0783 99.354 18.9013 99.5194 18.776C99.6843 18.6506 99.8919 18.5879 100.143 18.5879H102.331V24.1088H106.946V27.1165H102.331V36.6196C102.331 37.1669 102.467 37.5946 102.741 37.9023C103.014 38.2099 103.378 38.3637 103.835 38.3637C104.096 38.3637 104.316 38.3321 104.493 38.2694C104.669 38.2072 104.823 38.1414 104.954 38.0724C105.085 38.0044 105.202 37.9386 105.305 37.8759C105.407 37.8143 105.51 37.7822 105.612 37.7822C105.738 37.7822 105.84 37.8143 105.92 37.8759C106 37.9386 106.085 38.0334 106.177 38.1577L107.441 40.2094C106.826 40.7225 106.12 41.1096 105.322 41.3714C104.524 41.6338 103.698 41.7649 102.843 41.7649Z" fill="#F7941E"/>
<path d="M110.312 41.491V23.955H112.791C113.224 23.955 113.526 24.035 113.697 24.1941C113.867 24.3537 113.981 24.6271 114.038 25.0143L114.295 27.1339C114.921 26.0514 115.656 25.1971 116.499 24.5702C117.343 23.9434 118.288 23.63 119.337 23.63C120.203 23.63 120.921 23.8296 121.491 24.2284L120.943 27.3904C120.909 27.5953 120.835 27.7407 120.721 27.8261C120.607 27.9119 120.453 27.9546 120.26 27.9546C120.088 27.9546 119.855 27.9146 119.559 27.835C119.262 27.7555 118.869 27.7149 118.38 27.7149C117.501 27.7149 116.75 27.9572 116.123 28.4413C115.496 28.9259 114.967 29.6354 114.534 30.5694V41.491H110.312Z" fill="#F7941E"/>
<path d="M131.524 23.6816C132.628 23.6816 133.645 23.8586 134.574 24.2115C135.503 24.5644 136.303 25.0807 136.975 25.7586C137.648 26.4365 138.172 27.2682 138.548 28.2538C138.924 29.2393 139.112 30.3645 139.112 31.6292C139.112 31.9484 139.097 32.2134 139.069 32.4246C139.04 32.6348 138.99 32.8007 138.915 32.9197C138.841 33.0398 138.742 33.1252 138.616 33.1763C138.491 33.2274 138.331 33.2527 138.138 33.2527H127.302C127.427 35.0536 127.911 36.3758 128.754 37.218C129.598 38.0619 130.714 38.4828 132.104 38.4828C132.788 38.4828 133.377 38.4032 133.873 38.2436C134.369 38.084 134.802 37.9075 135.172 37.7142C135.542 37.5204 135.867 37.3439 136.147 37.1838C136.425 37.0242 136.696 36.9446 136.959 36.9446C137.129 36.9446 137.277 36.9783 137.403 37.0468C137.529 37.1153 137.637 37.2122 137.727 37.3376L138.958 38.8762C138.49 39.423 137.967 39.8813 137.386 40.2516C136.805 40.6219 136.198 40.9184 135.565 41.1407C134.933 41.363 134.29 41.5195 133.634 41.6111C132.978 41.7017 132.344 41.7475 131.728 41.7475C130.51 41.7475 129.375 41.5453 128.327 41.1413C127.279 40.7367 126.367 40.1389 125.592 39.3466C124.818 38.5549 124.208 37.5752 123.764 36.4068C123.319 35.239 123.097 33.8858 123.097 32.3477C123.097 31.1514 123.29 30.0258 123.678 28.9723C124.066 27.9183 124.621 27.0007 125.345 26.2205C126.068 25.4399 126.951 24.8215 127.994 24.3659C129.036 23.9097 130.213 23.6816 131.524 23.6816ZM131.609 26.7067C130.378 26.7067 129.415 27.0544 128.72 27.7492C128.025 28.4445 127.581 29.43 127.388 30.7063H135.318C135.318 30.1596 135.243 29.6439 135.095 29.1593C134.947 28.6752 134.72 28.2506 134.412 27.8861C134.104 27.5216 133.717 27.234 133.25 27.0228C132.782 26.8121 132.235 26.7067 131.609 26.7067Z" fill="#F7941E"/>
<path d="M156.288 41.491H154.39C153.992 41.491 153.678 41.4315 153.451 41.3114C153.222 41.1918 153.052 40.95 152.938 40.585L152.561 39.3371C152.117 39.7364 151.681 40.0867 151.255 40.3885C150.826 40.6903 150.385 40.9437 149.929 41.1491C149.474 41.3541 148.99 41.5079 148.477 41.6106C147.964 41.7128 147.394 41.7644 146.768 41.7644C146.027 41.7644 145.343 41.6643 144.717 41.4647C144.09 41.2645 143.551 40.9643 143.101 40.5639C142.651 40.1641 142.3 39.6669 142.05 39.0722C141.8 38.4775 141.674 37.7859 141.674 36.9978C141.674 36.3341 141.848 35.6794 142.196 35.0336C142.543 34.3878 143.121 33.8047 143.931 33.2842C144.739 32.7649 145.816 32.3329 147.161 31.9895C148.505 31.6471 150.174 31.4749 152.169 31.4749V30.4419C152.169 29.2593 151.92 28.3839 151.425 27.8155C150.93 27.2472 150.208 26.9627 149.263 26.9627C148.58 26.9627 148.01 27.0428 147.554 27.2024C147.098 27.362 146.702 27.5416 146.366 27.7407C146.029 27.9398 145.72 28.1195 145.435 28.2791C145.15 28.4387 144.836 28.5182 144.494 28.5182C144.21 28.5182 143.964 28.4445 143.759 28.2959C143.555 28.1479 143.389 27.9657 143.263 27.7492L142.495 26.3991C144.511 24.5528 146.944 23.63 149.793 23.63C150.818 23.63 151.732 23.798 152.536 24.1341C153.339 24.4707 154.02 24.9374 154.578 25.5358C155.136 26.1341 155.561 26.8495 155.852 27.6807C156.142 28.5124 156.288 29.4242 156.288 30.4156V41.491H156.288ZM148.084 38.8588C148.517 38.8588 148.915 38.8199 149.28 38.7408C149.644 38.6624 149.99 38.5444 150.315 38.3874C150.639 38.2304 150.953 38.0371 151.255 37.8069C151.556 37.5767 151.861 37.3049 152.169 36.9905V34.0559C150.938 34.0559 149.91 34.1328 149.084 34.2877C148.258 34.4426 147.594 34.6406 147.093 34.8819C146.591 35.1226 146.236 35.4039 146.025 35.7257C145.814 36.0465 145.708 36.3963 145.708 36.775C145.708 37.5214 145.928 38.0555 146.366 38.3758C146.805 38.6982 147.378 38.8588 148.084 38.8588Z" fill="#F7941E"/>
<path d="M160.442 41.491V23.955H163.022C163.569 23.955 163.929 24.2115 164.099 24.724L164.373 26.023C164.681 25.6812 165.002 25.3683 165.339 25.0828C165.675 24.7983 166.033 24.5529 166.415 24.3479C166.797 24.143 167.207 23.9808 167.646 23.8607C168.085 23.7417 168.566 23.6816 169.09 23.6816C170.195 23.6816 171.105 23.9808 171.816 24.5787C172.528 25.1771 173.061 25.9719 173.414 26.9633C173.688 26.3817 174.03 25.884 174.44 25.4673C174.85 25.0517 175.3 24.713 175.79 24.4507C176.28 24.1889 176.801 23.995 177.354 23.8691C177.907 23.7443 178.462 23.6816 179.021 23.6816C179.989 23.6816 180.85 23.8296 181.602 24.1257C182.354 24.4222 182.986 24.8552 183.499 25.4246C184.012 25.9946 184.402 26.6899 184.669 27.51C184.938 28.3307 185.071 29.2704 185.071 30.3302V41.491H180.85V30.3302C180.85 29.2135 180.604 28.3734 180.115 27.8092C179.625 27.2451 178.907 26.9633 177.961 26.9633C177.528 26.9633 177.127 27.0375 176.757 27.1855C176.386 27.3336 176.061 27.5469 175.782 27.8261C175.503 28.1053 175.284 28.4561 175.124 28.8775C174.964 29.2994 174.885 29.783 174.885 30.3302V41.491H170.646V30.3302C170.646 29.1566 170.409 28.3017 169.936 27.766C169.464 27.2308 168.765 26.9633 167.842 26.9633C167.238 26.9633 166.672 27.1144 166.142 27.4163C165.612 27.7181 165.12 28.1311 164.664 28.6552V41.491H160.442Z" fill="#F7941E"/>
<path d="M194.06 37.6968H203.957V41.491H189.463V16.777H194.06V37.6968Z" fill="#2455A6"/>
<path d="M213.733 23.6816C215.043 23.6816 216.231 23.8923 217.297 24.3137C218.362 24.7356 219.272 25.334 220.023 26.1083C220.776 26.8837 221.356 27.8292 221.767 28.9459C222.177 30.0627 222.382 31.3105 222.382 32.689C222.382 34.0791 222.177 35.3323 221.767 36.449C221.357 37.5662 220.776 38.517 220.023 39.3034C219.272 40.0893 218.362 40.694 217.297 41.1149C216.231 41.5368 215.044 41.7475 213.733 41.7475C212.423 41.7475 211.231 41.5368 210.161 41.1149C209.09 40.6935 208.175 40.0893 207.418 39.3034C206.66 38.517 206.073 37.5662 205.657 36.449C205.242 35.3323 205.033 34.0791 205.033 32.689C205.033 31.3105 205.242 30.0627 205.657 28.9459C206.073 27.8292 206.66 26.8837 207.418 26.1083C208.176 25.334 209.09 24.7356 210.161 24.3137C211.231 23.8923 212.423 23.6816 213.733 23.6816ZM213.733 38.5001C215.192 38.5001 216.271 38.0097 216.972 37.0305C217.673 36.0502 218.023 34.6148 218.023 32.7227C218.023 30.8312 217.673 29.3895 216.972 28.3987C216.271 27.4078 215.191 26.9122 213.733 26.9122C212.252 26.9122 211.158 27.4105 210.452 28.4071C209.745 29.4047 209.392 30.8433 209.392 32.7227C209.392 34.6027 209.745 36.0355 210.452 37.021C211.158 38.0076 212.252 38.5001 213.733 38.5001Z" fill="#2455A6"/>
<path d="M238.02 41.491C237.473 41.491 237.114 41.2345 236.944 40.722L236.602 39.0301C236.237 39.4393 235.855 39.8102 235.457 40.1404C235.057 40.4712 234.628 40.7557 234.166 40.9948C233.705 41.234 233.21 41.4199 232.68 41.5511C232.15 41.6812 231.577 41.747 230.961 41.747C230.005 41.747 229.128 41.5474 228.33 41.1492C227.532 40.7499 226.845 40.1726 226.271 39.4141C225.694 38.6566 225.25 37.7195 224.937 36.6023C224.624 35.4861 224.467 34.2098 224.467 32.7739C224.467 31.4744 224.643 30.2671 224.997 29.1503C225.35 28.0336 225.857 27.0655 226.518 26.2448C227.179 25.4241 227.971 24.7836 228.894 24.3222C229.817 23.8607 230.853 23.63 232.005 23.63C232.984 23.63 233.822 23.7864 234.517 24.0999C235.212 24.4133 235.833 24.832 236.38 25.3562V16.0927H240.601V41.491H238.02ZM232.398 38.3974C233.275 38.3974 234.022 38.2157 234.637 37.8507C235.252 37.4862 235.833 36.9678 236.38 36.2952V28.4329C235.901 27.8519 235.381 27.4416 234.816 27.2024C234.253 26.9633 233.646 26.8437 232.996 26.8437C232.358 26.8437 231.779 26.9633 231.261 27.2024C230.743 27.4416 230.305 27.8034 229.945 28.2881C229.587 28.7721 229.309 29.3874 229.116 30.1338C228.922 30.8802 228.825 31.7599 228.825 32.7744C228.825 33.7994 228.909 34.6686 229.074 35.3802C229.238 36.0934 229.475 36.6739 229.783 37.1243C230.091 37.5741 230.467 37.8991 230.911 38.0982C231.355 38.2979 231.851 38.3974 232.398 38.3974Z" fill="#2455A6"/>
<path d="M252.412 23.6816C253.517 23.6816 254.533 23.8586 255.462 24.2115C256.391 24.5644 257.191 25.0807 257.864 25.7586C258.536 26.4365 259.06 27.2682 259.436 28.2538C259.812 29.2393 260 30.3645 260 31.6292C260 31.9484 259.986 32.2134 259.957 32.4246C259.928 32.6348 259.878 32.8007 259.803 32.9197C259.729 33.0398 259.63 33.1252 259.505 33.1763C259.379 33.2274 259.22 33.2527 259.026 33.2527H248.19C248.315 35.0536 248.8 36.3758 249.642 37.218C250.487 38.0619 251.603 38.4828 252.993 38.4828C253.676 38.4828 254.266 38.4032 254.761 38.2436C255.257 38.084 255.691 37.9075 256.061 37.7142C256.431 37.5204 256.755 37.3439 257.035 37.1838C257.314 37.0242 257.584 36.9446 257.847 36.9446C258.018 36.9446 258.166 36.9783 258.291 37.0468C258.417 37.1153 258.525 37.2122 258.616 37.3376L259.847 38.8762C259.379 39.423 258.855 39.8813 258.275 40.2516C257.693 40.6219 257.086 40.9184 256.454 41.1407C255.822 41.363 255.179 41.5195 254.523 41.6111C253.868 41.7017 253.233 41.7475 252.618 41.7475C251.398 41.7475 250.264 41.5453 249.216 41.1413C248.168 40.7367 247.256 40.1389 246.481 39.3466C245.707 38.5549 245.097 37.5752 244.653 36.4068C244.208 35.239 243.986 33.8858 243.986 32.3477C243.986 31.1514 244.179 30.0258 244.567 28.9723C244.955 27.9183 245.51 27.0007 246.234 26.2205C246.957 25.4399 247.84 24.8215 248.883 24.3659C249.924 23.9097 251.101 23.6816 252.412 23.6816ZM252.497 26.7067C251.266 26.7067 250.303 27.0544 249.609 27.7492C248.914 28.4445 248.469 29.43 248.276 30.7063H256.206C256.206 30.1596 256.132 29.6439 255.984 29.1593C255.835 28.6752 255.608 28.2506 255.3 27.8861C254.993 27.5216 254.605 27.234 254.138 27.0228C253.671 26.8121 253.123 26.7067 252.497 26.7067Z" fill="#2455A6"/>
</svg>
